<?xml version="1.0" encoding="UTF-8"?>
<svg xmlns="http://www.w3.org/2000/svg" xmlns:xlink="http://www.w3.org/1999/xlink" viewBox="0 0 96 96" version="1.1">
  <circle cx="48" cy="48" r="46" fill="#ffffff" />
  
  <g id="surface1">
    <path style="stroke:none; fill-rule:nonzero; fill:#000000; fill-opacity:1;" d="M 27.789062 22.578125 C 26.808594 22.714844 24.789062 23.289062 24.691406 23.441406 C 24.652344 23.519531 24.789062 23.691406 25 23.808594 C 25.617188 24.132812 25.460938 24.269531 24.289062 24.558594 C 23.671875 24.691406 22.867188 24.960938 22.480469 25.171875 C 21.519531 25.652344 19.617188 27.496094 19.617188 27.9375 C 19.617188 28.128906 19.441406 28.472656 19.25 28.683594 C 19.039062 28.914062 18.652344 29.644531 18.347656 30.335938 C 17.710938 31.871094 17.5 34.867188 17.921875 36.289062 L 18.191406 37.152344 L 18.691406 36.382812 C 19.632812 34.90625 21.25 33.984375 22.902344 33.984375 C 24.078125 33.984375 24.921875 34.347656 25.710938 35.195312 C 26.441406 35.960938 26.730469 36.804688 26.730469 38.207031 C 26.730469 40.222656 26.039062 41.855469 23.269531 46.464844 C 20.578125 50.976562 19.671875 53.183594 19.210938 56.542969 C 18.632812 60.691406 20.347656 65.242188 23.578125 68.121094 C 24.789062 69.175781 25.441406 69.621094 26.980469 70.464844 L 27.691406 70.847656 L 27.691406 65.644531 L 28.867188 64.109375 C 29.519531 63.265625 30.058594 62.59375 30.097656 62.628906 C 30.132812 62.667969 30.460938 63.207031 30.828125 63.839844 C 31.191406 64.472656 32.152344 66.164062 32.980469 67.585938 C 33.808594 69.003906 34.828125 70.808594 35.25 71.558594 L 36.019531 72.960938 L 39.480469 72.960938 C 43.382812 72.960938 43.152344 73.09375 42.019531 71.328125 C 41.652344 70.734375 41.347656 70.214844 41.347656 70.175781 C 41.347656 70.117188 41.019531 69.523438 40.617188 68.871094 C 39.230469 66.644531 38.597656 65.566406 38.171875 64.800781 C 37.117188 62.878906 36.097656 61.132812 35.867188 60.863281 C 35.730469 60.710938 35.308594 59.960938 34.882812 59.210938 L 34.152344 57.832031 L 35.289062 56.332031 C 35.902344 55.488281 36.539062 54.699219 36.671875 54.566406 C 36.808594 54.433594 36.921875 54.238281 36.921875 54.183594 C 36.921875 54.105469 37.230469 53.703125 37.597656 53.28125 C 37.960938 52.859375 38.269531 52.453125 38.269531 52.378906 C 38.269531 52.300781 38.382812 52.128906 38.519531 51.992188 C 38.808594 51.707031 40.847656 49.035156 41.539062 48.019531 C 42 47.386719 42.117188 47.328125 43.132812 47.269531 L 44.230469 47.210938 L 44.230469 72.960938 L 50.191406 72.960938 L 50.230469 60.132812 L 50.289062 47.328125 L 51.691406 47.269531 L 53.078125 47.210938 L 53.078125 56.257812 C 53.078125 63.726562 53.117188 65.28125 53.347656 65.28125 C 53.558594 65.28125 54.632812 64.761719 56.347656 63.839844 C 56.617188 63.6875 57.210938 63.1875 57.671875 62.707031 L 58.519531 61.84375 L 57.867188 61.304688 C 56.691406 60.34375 56.382812 59.960938 55.808594 58.828125 C 55.269531 57.734375 54.867188 56.449219 55.078125 56.449219 C 55.132812 56.449219 55.558594 56.984375 56.039062 57.636719 C 57.882812 60.210938 59.691406 61.246094 62.289062 61.246094 C 64.597656 61.246094 67.230469 60.171875 70.058594 58.097656 C 70.441406 57.8125 70.882812 57.714844 71.710938 57.695312 C 72.691406 57.695312 72.941406 57.773438 74.039062 58.503906 C 75 59.15625 75.421875 59.328125 76.097656 59.328125 C 77.710938 59.328125 77.941406 58.925781 77.402344 57.0625 C 77.019531 55.757812 76.367188 55.046875 75.039062 54.414062 C 74.019531 53.933594 73.867188 53.914062 72.210938 54.046875 C 71.269531 54.144531 69.769531 54.222656 68.902344 54.222656 C 67.5 54.238281 67.289062 54.183594 66.847656 53.777344 C 65.058594 52.109375 66.347656 48.941406 69.269531 47.828125 C 69.539062 47.730469 70.769531 47.539062 72.039062 47.425781 C 73.289062 47.308594 74.578125 47.058594 74.902344 46.90625 C 75.921875 46.367188 77.078125 45.3125 77.597656 44.429688 C 78.171875 43.429688 78.132812 43.335938 76.789062 41.953125 C 76.367188 41.53125 75.867188 40.875 75.671875 40.511719 C 74.421875 38.113281 72.191406 36.191406 69.519531 35.210938 L 68.367188 34.789062 L 68.230469 33.8125 C 68.039062 32.523438 67.308594 31.105469 66.347656 30.144531 C 65.25 29.050781 65.210938 29.070312 64.902344 30.949219 L 64.789062 31.660156 L 63.902344 30.988281 C 63.039062 30.335938 61.539062 29.472656 61.460938 29.605469 C 61.441406 29.644531 61.328125 30.222656 61.191406 30.910156 C 61.078125 31.601562 60.867188 32.640625 60.75 33.214844 C 60.632812 33.792969 60.597656 34.847656 60.652344 35.539062 C 60.75 36.652344 60.710938 36.84375 60.382812 37.152344 C 60.171875 37.34375 59.671875 37.976562 59.289062 38.574219 C 58.882812 39.167969 58.382812 39.859375 58.132812 40.128906 C 57.882812 40.398438 57.691406 40.664062 57.691406 40.722656 C 57.691406 40.894531 56 42.105469 55.269531 42.488281 C 54.171875 43.027344 51.382812 43.585938 48.652344 43.777344 C 44.25 44.121094 42.558594 44.429688 40.402344 45.292969 C 36.308594 46.925781 33.730469 49.210938 30.597656 53.933594 C 30.347656 54.316406 29.882812 54.929688 29.578125 55.296875 C 28.828125 56.199219 28.808594 56.238281 27.960938 57.425781 L 27.210938 58.464844 L 27.152344 56.945312 C 27.097656 55.371094 27.519531 53.644531 28.230469 52.589844 C 28.402344 52.300781 28.789062 51.742188 29.078125 51.320312 C 29.808594 50.226562 32.328125 47.980469 34.347656 46.65625 C 40.382812 42.625 42.210938 40.433594 42.808594 36.421875 C 43.191406 33.847656 42.882812 30.894531 42.019531 28.894531 L 41.671875 28.128906 L 41.402344 28.742188 C 41.269531 29.089844 41.117188 29.375 41.078125 29.375 C 41.039062 29.375 40.671875 28.761719 40.289062 27.992188 C 39.039062 25.535156 37.019531 23.808594 34.328125 22.945312 C 33.597656 22.695312 32.960938 22.523438 32.921875 22.558594 C 32.882812 22.597656 32.941406 22.808594 33.078125 23.019531 C 33.328125 23.519531 33.230469 23.519531 32.019531 23.058594 C 31.019531 22.675781 28.828125 22.445312 27.789062 22.578125 Z M 27.789062 22.578125 "/>
    <path style="stroke:none; fill-rule:nonzero; fill:#000000; fill-opacity:1;" d="M 70.691406 59.328125 C 70.402344 59.425781 70 59.617188 69.828125 59.769531 C 69.652344 59.921875 68.769531 60.480469 67.828125 61.035156 C 65.921875 62.1875 64.058594 62.785156 62.460938 62.785156 C 61.210938 62.785156 61.078125 62.976562 61.730469 63.800781 C 61.941406 64.070312 62.117188 64.339844 62.117188 64.414062 C 62.117188 64.492188 62.441406 65.089844 62.828125 65.742188 C 63.230469 66.375 63.691406 67.140625 63.847656 67.429688 C 64.828125 69.195312 65.269531 69.886719 65.402344 69.886719 C 65.480469 69.886719 65.75 69.523438 66 69.0625 C 66.269531 68.621094 67.019531 67.296875 67.671875 66.144531 C 68.328125 64.972656 69.347656 63.246094 69.921875 62.304688 C 70.5 61.34375 71.078125 60.363281 71.191406 60.097656 C 71.402344 59.691406 71.441406 60.804688 71.5 66.277344 L 71.539062 72.960938 L 77.691406 72.960938 L 77.691406 60.574219 L 76.289062 60.632812 C 74.941406 60.691406 74.867188 60.671875 73.75 59.921875 C 72.558594 59.117188 71.882812 58.980469 70.691406 59.328125 Z M 70.691406 59.328125 "/>
    <path style="stroke:none; fill-rule:nonzero; fill:#000000; fill-opacity:1;" d="M 53.847656 68.890625 L 53.171875 69.214844 L 53.117188 71.078125 L 53.058594 72.960938 L 59.480469 72.960938 L 59.347656 71.960938 C 59.171875 70.65625 58.828125 70.0625 57.941406 69.445312 C 56.519531 68.46875 55.078125 68.273438 53.847656 68.890625 Z M 53.847656 68.890625 "/>
  </g>
</svg>
